# xmcd
#
# Track frame offsets:
#	150
#	56633
#	87223
#	146039
#	160893
#	182935
#	203257
#	219189
#	236847
#	254128
#	275508
#	294563
#	300595
#	313125
#	319280
#	327970
#
# Disc length: 4404 seconds
#
# Revision: 1
# Processed by: cddbd v1.5.2PL0 Copyright (c) Steve Scherf et al.
# Submitted via: audiograbber 1.83.01
#
DISCID=f5113210
DTITLE=Grateful Dead - 69-09-06 Family Dog at the Great Highway, San Francisco 
DTITLE=CA
DYEAR=1900
DGENRE=
TTITLE0=Good Morning Little Schoolgirl
TTITLE1=Doin' That Rag
TTITLE2=He Was A Friend Of Mine
TTITLE3=Big Boy Pete
TTITLE4=Good Lovin'
TTITLE5=It's All Over Now
TTITLE6=Peggy Sue
TTITLE7=That'll Be The Day
TTITLE8=Johnny B Goode
TTITLE9=Baby What Do You Want Me To Do
TTITLE10=Wipe Out
TTITLE11=Big Railroad Blues
TTITLE12=Louie Louie
TTITLE13=Twist and Shout
TTITLE14=Blue Moon
TTITLE15=David Gans Speaks
EXTD=
EXTT0=
EXTT1=
EXTT2=
EXTT3=
EXTT4=
EXTT5=
EXTT6=
EXTT7=
EXTT8=
EXTT9=
EXTT10=
EXTT11=
EXTT12=
EXTT13=
EXTT14=
EXTT15=
PLAYORDER=
